<?xml version="1.0" encoding="UTF-8"?>
<svg version="1.1" xmlns="http://www.w3.org/2000/svg" width="200" height="200">
<path d="M0 0 C66 0 132 0 200 0 C200 66 200 132 200 200 C134 200 68 200 0 200 C0 134 0 68 0 0 Z " fill="#FDFDFD" transform="translate(0,0)"/>
<path d="M0 0 C14.19 0 28.38 0 43 0 C43 4.63841291 42.94419133 8.19432888 42.16015625 12.609375 C41.8962207 14.11177734 41.8962207 14.11177734 41.62695312 15.64453125 C41.44068359 16.66933594 41.25441406 17.69414063 41.0625 18.75 C40.88009766 19.79027344 40.69769531 20.83054687 40.50976562 21.90234375 C39.1487409 29.55377731 39.1487409 29.55377731 38 33 C29.75 33 21.5 33 13 33 C12.67 31.02 12.34 29.04 12 27 C5.86572936 26.38866642 5.86572936 26.38866642 0.5 28.875 C-1.02104397 30.91671961 -1.02104397 30.91671961 -2 33 C-4.31 33 -6.62 33 -9 33 C-8.67 30.69 -8.34 28.38 -8 26 C-6.68 26 -5.36 26 -4 26 C-3.96261719 25.29617187 -3.92523438 24.59234375 -3.88671875 23.8671875 C-3.32883595 15.48800659 -1.8034313 8.41601275 0 0 Z " fill="#FCFCFC" transform="translate(74,53)"/>
<path d="M0 0 C15.51 0 31.02 0 47 0 C47 2.31 47 4.62 47 7 C48.08667969 7.05607422 48.08667969 7.05607422 49.1953125 7.11328125 C54.73860036 7.49022482 59.25414911 7.83609941 64 11 C65.98113803 13.97170705 66.2715325 14.7372944 66.44921875 18.08984375 C66.49240234 18.87423828 66.53558594 19.65863281 66.58007812 20.46679688 C66.61552734 21.28212891 66.65097656 22.09746094 66.6875 22.9375 C66.73455078 23.74896484 66.78160156 24.56042969 66.83007812 25.39648438 C67.0195453 29.18272185 67.06381447 32.32955619 66 36 C64.453125 36.0928125 64.453125 36.0928125 62.875 36.1875 C58.85472243 36.71311754 58.85472243 36.71311754 55.9375 39.5625 C53 42 53 42 49.8125 42.5 C47 42 47 42 45.125 40.6875 C44 39 44 39 44 36 C34.1 36 24.2 36 14 36 C13.34 37.32 12.68 38.64 12 40 C8.53076119 42.31282587 7.07794425 42.42478586 3 42 C1.125 40.6875 1.125 40.6875 0 39 C0 38.01 0 37.02 0 36 C-2.97 36 -5.94 36 -9 36 C-8.67 34.35 -8.34 32.7 -8 31 C-11.63 31 -15.26 31 -19 31 C-19 30.34 -19 29.68 -19 29 C-15.04 29 -11.08 29 -7 29 C-7 27.68 -7 26.36 -7 25 C-5.68 25 -4.36 25 -3 25 C-3 24.01 -3 23.02 -3 22 C-7.95 22 -12.9 22 -18 22 C-18 21.67 -18 21.34 -18 21 C-13.05 21 -8.1 21 -3 21 C-2.67 18.69 -2.34 16.38 -2 14 C-6.95 14 -11.9 14 -17 14 C-17 13.34 -17 12.68 -17 12 C-11.72 12 -6.44 12 -1 12 C-0.67 9.69 -0.34 7.38 0 5 C-4.95 5 -9.9 5 -15 5 C-15 4.34 -15 3.68 -15 3 C-10.05 3 -5.1 3 0 3 C0 2.01 0 1.02 0 0 Z M2 1 C-0.85983501 13.91485956 -0.85983501 13.91485956 -2 27 C-3.32 27 -4.64 27 -6 27 C-6.33 29.31 -6.66 31.62 -7 34 C-3.62599422 34.41725678 -3.62599422 34.41725678 0 34 C1.88051585 31.64410004 1.88051585 31.64410004 3 29 C5.40545638 27.79727181 6.94996953 27.89928528 9.625 27.9375 C10.85089844 27.95103516 10.85089844 27.95103516 12.1015625 27.96484375 C12.72804688 27.97644531 13.35453125 27.98804687 14 28 C14.33 29.98 14.66 31.96 15 34 C23.25 34 31.5 34 40 34 C40.91253245 29.10700386 40.91253245 29.10700386 41.82299805 24.21362305 C42.69211231 19.56011117 43.62567117 14.92690415 44.66796875 10.30859375 C45.10997095 7.23537848 45 4.10483784 45 1 C30.81 1 16.62 1 2 1 Z " fill="#2A2A2A" transform="translate(72,52)"/>
<path d="M0 0 C2.96260319 1.81189251 5.42159878 3.84319756 7 7 C7.37168996 12.57534937 7.22542715 16.21747009 4 21 C1.07064464 23.51087603 -1.29341736 24.20686248 -5.0625 24.375 C-9 24 -9 24 -13 21 C-13.33 25.29 -13.66 29.58 -14 34 C-14.99 34 -15.98 34 -17 34 C-17.17509799 29.64634573 -17.2811281 25.29360303 -17.375 20.9375 C-17.42527344 19.70837891 -17.47554688 18.47925781 -17.52734375 17.21289062 C-17.69313554 6.96143185 -17.69313554 6.96143185 -14.1640625 2.69140625 C-9.98904782 -1.43237727 -5.49511431 -1.54485289 0 0 Z " fill="#0D0D0D" transform="translate(114,114)"/>
<path d="M0 0 C2.41734542 -0.08117951 4.83194949 -0.14056926 7.25 -0.1875 C7.93191406 -0.21263672 8.61382812 -0.23777344 9.31640625 -0.26367188 C12.45476658 -0.30937615 14.64270911 -0.19535744 17.421875 1.32421875 C19.8563085 3.90929788 19.99758049 5.93346359 20.125 9.4375 C20.02757693 12.21405756 19.83687001 14.38478123 19 17 C19.66 17.33 20.32 17.66 21 18 C20.67 19.98 20.34 21.96 20 24 C18.02 24 16.04 24 14 24 C13.67 22.02 13.34 20.04 13 18 C6.86572936 17.38866642 6.86572936 17.38866642 1.5 19.875 C-0.02104397 21.91671961 -0.02104397 21.91671961 -1 24 C-1.66 24 -2.32 24 -3 24 C-2.29563752 15.95543903 -1.18531495 7.98649105 0 0 Z " fill="#F5F5F5" transform="translate(117,62)"/>
<path d="M0 0 C0.66 0.33 1.32 0.66 2 1 C1.34 3.31 0.68 5.62 0 8 C2.31 8 4.62 8 7 8 C7.268125 7.21625 7.53625 6.4325 7.8125 5.625 C9 3 9 3 12 1 C18.14901961 0.45098039 18.14901961 0.45098039 20.9375 2.25 C22 4 22 4 22 8 C22.73637695 7.98952637 23.47275391 7.97905273 24.23144531 7.96826172 C27.57092876 7.92666298 30.91035765 7.90066136 34.25 7.875 C35.98830078 7.84986328 35.98830078 7.84986328 37.76171875 7.82421875 C38.87675781 7.81777344 39.99179688 7.81132813 41.140625 7.8046875 C42.68024902 7.78897705 42.68024902 7.78897705 44.25097656 7.77294922 C47 8 47 8 51 10 C41.1 10 31.2 10 21 10 C20.34 11.32 19.68 12.64 19 14 C15.53076119 16.31282587 14.07794425 16.42478586 10 16 C8.125 14.6875 8.125 14.6875 7 13 C7 12.01 7 11.02 7 10 C4.03 10 1.06 10 -2 10 C-1.67 8.35 -1.34 6.7 -1 5 C-4.63 5 -8.26 5 -12 5 C-12 4.34 -12 3.68 -12 3 C-8.04 3 -4.08 3 0 3 C0 2.01 0 1.02 0 0 Z " fill="#363636" transform="translate(65,78)"/>
<path d="M0 0 C0.99 0.33 1.98 0.66 3 1 C3.33 4.63 3.66 8.26 4 12 C5.32 11.34 6.64 10.68 8 10 C13.03829462 10.07997293 15.02815058 10.19357175 18.9375 13.4375 C22.35015844 17.67746958 22.12153148 20.86665764 22.0625 26.125 C22.05798828 26.87910156 22.05347656 27.63320312 22.04882812 28.41015625 C22.03703499 30.27347127 22.01909942 32.13674555 22 34 C20.68 34 19.36 34 18 34 C17.96261719 32.79601562 17.92523438 31.59203125 17.88671875 30.3515625 C17.82107072 28.77600989 17.75462299 27.20049046 17.6875 25.625 C17.66494141 24.8309375 17.64238281 24.036875 17.61914062 23.21875 C17.52214925 21.13784419 17.27005175 19.06558668 17 17 C12.93150591 14.28767061 10.83523216 14.69300113 6 15 C2.97906785 18.02093215 3.53323166 21.56372072 3.375 25.625 C3.33632813 26.42679688 3.29765625 27.22859375 3.2578125 28.0546875 C3.16346069 30.03607556 3.08063785 32.01800645 3 34 C1.68 34 0.36 34 -1 34 C-1.02465288 29.31860746 -1.04283739 24.63725241 -1.05493164 19.95581055 C-1.05997157 18.36205386 -1.0668035 16.76830181 -1.07543945 15.17456055 C-1.08751999 12.88849747 -1.09323155 10.60249533 -1.09765625 8.31640625 C-1.10281754 7.59973282 -1.10797882 6.88305939 -1.11329651 6.14466858 C-1.11349263 4.42936328 -1.06192007 2.71418734 -1 1 C-0.67 0.67 -0.34 0.34 0 0 Z " fill="#222222" transform="translate(50,103)"/>
<path d="M0 0 C3.68435029 1.04736571 5.06058191 3.38348198 6.9375 6.55078125 C7.67240789 10.55194642 7.32564018 11.96857099 5.0625 15.36328125 C2.37052791 18.13442898 1.487107 18.47819165 -2.375 18.98828125 C-6.0625 18.55078125 -6.0625 18.55078125 -9 15.98828125 C-10.79111311 13.46525149 -11.12718531 12.182075 -11.6875 8.98828125 C-11.0625 5.55078125 -11.0625 5.55078125 -9.0625 2.61328125 C-5.74429675 0.33201652 -3.95169871 -0.26194973 0 0 Z " fill="#F5F5F5" transform="translate(111.0625,116.44921875)"/>
<path d="M0 0 C2.5625 1.8125 2.5625 1.8125 3.4375 4.5 C3.47875 5.263125 3.52 6.02625 3.5625 6.8125 C-0.4375 4.8125 -0.4375 4.8125 -2.3125 3.6875 C-5.18717947 2.50380845 -7.35899551 2.48499952 -10.4375 2.8125 C-12.48201019 3.85624022 -12.48201019 3.85624022 -13.4375 5.8125 C-13.43593776 8.40367313 -13.43593776 8.40367313 -12.4375 10.8125 C-9.58115908 12.71672728 -7.75821776 13.35457215 -4.5 14.1875 C2.44096041 16.24445615 2.44096041 16.24445615 4.5625 19.8125 C5.17339984 24.62333621 5.30107492 26.6553993 2.6875 30.75 C-1.13986003 34.46479061 -4.50388937 34.20184698 -9.66015625 34.16796875 C-13.99583098 33.61305117 -15.6175243 32.08976905 -18.4375 28.8125 C-18.4375 27.8225 -18.4375 26.8325 -18.4375 25.8125 C-15.85926921 26.28995015 -14.28207237 26.91475502 -12.0625 28.375 C-8.27583853 30.44864795 -5.21057088 30.18577808 -1.0625 29.3125 C-0.258125 29.065 -0.258125 29.065 0.5625 28.8125 C1.02904191 24.26741455 1.02904191 24.26741455 -0.57421875 20.203125 C-3.83801606 17.76725112 -7.75079768 17.06939735 -11.625 15.97265625 C-14.75048899 14.68339204 -15.81132926 13.73632214 -17.4375 10.8125 C-18 7.375 -18 7.375 -17.4375 3.8125 C-12.26902317 -2.26046027 -7.30782685 -2.524522 0 0 Z " fill="#121212" transform="translate(35.4375,104.1875)"/>
<path d="M0 0 C15.51 0 31.02 0 47 0 C47 7 47 7 46 9 C49.3 9 52.6 9 56 9 C56 9.33 56 9.66 56 10 C52.37 10 48.74 10 45 10 C45.04125 11.093125 45.0825 12.18625 45.125 13.3125 C45.14420838 18.66203382 44.07503069 23.77842235 43 29 C42.34 28.34 41.68 27.68 41 27 C41.171875 23.91015625 41.171875 23.91015625 41.75 20.0625 C41.93046875 18.81597656 42.1109375 17.56945312 42.296875 16.28515625 C43.13466009 11.17932155 44.07442676 6.09065281 45 1 C30.81 1 16.62 1 2 1 C1.67 3.97 1.34 6.94 1 10 C0.76870859 11.53569948 0.52284732 13.06949524 0.24609375 14.59765625 C0.11396484 15.33564453 -0.01816406 16.07363281 -0.15429688 16.83398438 C-0.28900391 17.56939453 -0.42371094 18.30480469 -0.5625 19.0625 C-0.70107422 19.83271484 -0.83964844 20.60292969 -0.98242188 21.39648438 C-1.3189516 23.26480455 -1.65908555 25.13247494 -2 27 C-3.65 26.67 -5.3 26.34 -7 26 C-5.68 25.67 -4.36 25.34 -3 25 C-3 24.01 -3 23.02 -3 22 C-7.95 22 -12.9 22 -18 22 C-18 21.67 -18 21.34 -18 21 C-13.05 21 -8.1 21 -3 21 C-2.67 18.69 -2.34 16.38 -2 14 C-6.95 14 -11.9 14 -17 14 C-17 13.34 -17 12.68 -17 12 C-11.72 12 -6.44 12 -1 12 C-0.67 9.69 -0.34 7.38 0 5 C-4.95 5 -9.9 5 -15 5 C-15 4.34 -15 3.68 -15 3 C-10.05 3 -5.1 3 0 3 C0 2.01 0 1.02 0 0 Z " fill="#313131" transform="translate(72,52)"/>
<path d="M0 0 C1.765625 0.0703125 1.765625 0.0703125 4 1 C5.44762313 3.30089692 6.61292696 5.43004895 7.75 7.875 C8.06582031 8.51308594 8.38164062 9.15117188 8.70703125 9.80859375 C10.1080189 12.71367203 11 14.73742804 11 18 C11.66 18 12.32 18 13 18 C13.10183594 17.31550781 13.20367187 16.63101563 13.30859375 15.92578125 C14.13769992 12.41730374 15.5172232 9.44244474 17.0625 6.1875 C17.88427734 4.44533203 17.88427734 4.44533203 18.72265625 2.66796875 C19.35494141 1.34732422 19.35494141 1.34732422 20 0 C20.99 0 21.98 0 23 0 C22.42235623 4.71482211 21.08387048 8.42442947 19.05859375 12.7109375 C18.77146011 13.32393707 18.48432648 13.93693665 18.18849182 14.56851196 C17.2783982 16.50734855 16.3581577 18.44116103 15.4375 20.375 C14.81507589 21.69629479 14.19332421 23.01790656 13.57226562 24.33984375 C12.05593512 27.56359786 10.53047185 30.78293103 9 34 C8.01 34 7.02 34 6 34 C6.46088489 31.31150481 6.97728263 29.04922097 8.125 26.5625 C9.69252651 21.97188666 8.21219848 18.18411259 6.15234375 13.984375 C5.42214826 12.56871672 4.68367807 11.15729958 3.9375 9.75 C0 2.23846154 0 2.23846154 0 0 Z " fill="#111111" transform="translate(160,114)"/>
<path d="M0 0 C0.721875 0.103125 1.44375 0.20625 2.1875 0.3125 C2.1875 1.3025 2.1875 2.2925 2.1875 3.3125 C1.40375 3.498125 0.62 3.68375 -0.1875 3.875 C-3.20626342 5.15211627 -3.20626342 5.15211627 -4.125 8.9375 C-4.351875 10.05125 -4.57875 11.165 -4.8125 12.3125 C-2.5025 12.3125 -0.1925 12.3125 2.1875 12.3125 C1.8575 13.3025 1.5275 14.2925 1.1875 15.3125 C-0.7925 15.3125 -2.7725 15.3125 -4.8125 15.3125 C-4.8125 21.5825 -4.8125 27.8525 -4.8125 34.3125 C-6.1325 34.3125 -7.4525 34.3125 -8.8125 34.3125 C-8.8125 28.0425 -8.8125 21.7725 -8.8125 15.3125 C-10.1325 14.9825 -11.4525 14.6525 -12.8125 14.3125 C-12.8125 13.6525 -12.8125 12.9925 -12.8125 12.3125 C-11.4925 12.3125 -10.1725 12.3125 -8.8125 12.3125 C-8.750625 11.260625 -8.68875 10.20875 -8.625 9.125 C-7.53813821 4.02511006 -5.46705609 0.60745068 0 0 Z " fill="#242424" transform="translate(154.8125,102.6875)"/>
<path d="M0 0 C1.04068369 3.72911656 1.32213295 5.38257852 -0.5 8.875 C-3 11 -3 11 -6.625 11.4375 C-10 11 -10 11 -12 9 C-11.8668165 5.33745362 -11.72325007 2.89015393 -9.375 0 C-6.01155688 -1.41618658 -3.50376557 -0.74118118 0 0 Z " fill="#EBEBEB" transform="translate(129,81)"/>
<path d="M0 0 C1.875 1.125 1.875 1.125 3 3 C2.87138693 6.08671376 2.46961176 8.21731373 0.875 10.875 C-2.08495867 12.6509752 -4.63857808 12.30558381 -8 12 C-8.66 11.34 -9.32 10.68 -10 10 C-9.7767253 3.85994587 -9.7767253 3.85994587 -7.25 1.0625 C-4.55036635 -0.212327 -2.95083651 -0.45397485 0 0 Z " fill="#E7E7E7" transform="translate(83,80)"/>
<path d="M0 0 C6.50666545 0.33655166 9.37869575 1.37869575 14 6 C15.60105604 9.20211208 15.35668408 12.51746635 15 16 C13.66728364 19.71757722 12.66128761 21.50403429 9.5 23.875 C7 25 7 25 4 25 C5.17530005 22.1151726 6.26301483 20.7620342 8.625 18.625 C11.23257371 16.20265749 11.23257371 16.20265749 11.5625 13 C10.84210667 9.15790225 9.95115708 7.58226244 7 5 C4.26652123 4.2905475 1.84807084 4.14240354 -1 4 C-0.67 2.68 -0.34 1.36 0 0 Z " fill="#151515" transform="translate(106,113)"/>
<path d="M0 0 C1.7492214 -0.08142927 3.49954542 -0.13938541 5.25 -0.1875 C6.22453125 -0.22230469 7.1990625 -0.25710937 8.203125 -0.29296875 C11.46040587 0.04822687 12.79622351 0.58109295 15 3 C15 4.65 15 6.3 15 8 C9.72 8 4.44 8 -1 8 C-0.67 5.36 -0.34 2.72 0 0 Z " fill="#525252" transform="translate(119,64)"/>
<path d="M0 0 C1.32 0 2.64 0 4 0 C4 7.59 4 15.18 4 23 C2.68 23 1.36 23 0 23 C0 15.41 0 7.82 0 0 Z " fill="#292929" transform="translate(82,114)"/>
<path d="M0 0 C2.41734542 -0.08117951 4.83194949 -0.14056926 7.25 -0.1875 C7.93191406 -0.21263672 8.61382812 -0.23777344 9.31640625 -0.26367188 C12.45476658 -0.30937615 14.64270911 -0.19535744 17.421875 1.32421875 C20.6549213 4.7573298 20.08410844 8.54225271 20 13 C16.88770267 10.45357491 16.22116068 7.74489276 15 4 C12.43106162 2.71553081 10.23423663 2.67022856 7.375 2.4375 C6.37210937 2.35371094 5.36921875 2.26992187 4.3359375 2.18359375 C3.17964844 2.09271484 3.17964844 2.09271484 2 2 C1.67 4.64 1.34 7.28 1 10 C3.31 10 5.62 10 8 10 C8 10.33 8 10.66 8 11 C5.36 11 2.72 11 0 11 C-1.35015859 6.94952424 -0.62084998 4.2079832 0 0 Z " fill="#DFDFDF" transform="translate(117,62)"/>
<path d="M0 0 C0.99 0 1.98 0 3 0 C3 7.92 3 15.84 3 24 C2.01 24 1.02 24 0 24 C0 16.08 0 8.16 0 0 Z " fill="#060606" transform="translate(131,114)"/>
<path d="M0 0 C0.99 0 1.98 0 3 0 C2.49487476 6.22987798 -0.32604123 11.45474233 -3 17 C-3.99 17 -4.98 17 -6 17 C-6.33 16.34 -6.66 15.68 -7 15 C-5.92591043 12.39525962 -4.79954367 9.90033962 -3.5625 7.375 C-3.22412109 6.66859375 -2.88574219 5.9621875 -2.53710938 5.234375 C-1.69845121 3.48618616 -0.85012153 1.74264314 0 0 Z " fill="#1A1A1A" transform="translate(180,114)"/>
<path d="M0 0 C0.66 0.33 1.32 0.66 2 1 C1.34 3.31 0.68 5.62 0 8 C2.31 8 4.62 8 7 8 C7 8.66 7 9.32 7 10 C4.03 10 1.06 10 -2 10 C-1.67 8.35 -1.34 6.7 -1 5 C-4.63 5 -8.26 5 -12 5 C-12 4.34 -12 3.68 -12 3 C-8.04 3 -4.08 3 0 3 C0 2.01 0 1.02 0 0 Z " fill="#3D3D3D" transform="translate(65,78)"/>
<path d="M0 0 C0.33 0 0.66 0 1 0 C1.33 3.63 1.66 7.26 2 11 C3.32 10.34 4.64 9.68 6 9 C8.75 8.875 8.75 8.875 11 9 C11 10.32 11 11.64 11 13 C9.3603125 13.185625 9.3603125 13.185625 7.6875 13.375 C3.92618198 13.75464801 3.92618198 13.75464801 1 16 C-0.14077657 12.57767028 -0.09815117 9.91326783 -0.0625 6.3125 C-0.05347656 5.13300781 -0.04445312 3.95351562 -0.03515625 2.73828125 C-0.02355469 1.83464844 -0.01195312 0.93101563 0 0 Z " fill="#2C2C2C" transform="translate(52,104)"/>
<path d="M0 0 C1.65 0.33 3.3 0.66 5 1 C5.75 3.1875 5.75 3.1875 6 6 C4.4375 8.8125 4.4375 8.8125 2 11 C-1.25 11.3125 -1.25 11.3125 -4 11 C-4 10.34 -4 9.68 -4 9 C-2.02 8.34 -0.04 7.68 2 7 C1.34414811 3.39007621 1.34414811 3.39007621 0 0 Z " fill="#F1F1F1" transform="translate(80,81)"/>
<path d="M0 0 C0.66 0.66 1.32 1.32 2 2 C1.625 5.125 1.625 5.125 1 8 C0.67 7.01 0.34 6.02 0 5 C-4.95 5 -9.9 5 -15 5 C-15 4.34 -15 3.68 -15 3 C-10.05 3 -5.1 3 0 3 C0 2.01 0 1.02 0 0 Z " fill="#4B4B4B" transform="translate(72,52)"/>
<path d="M0 0 C1.67542976 0.28604898 3.34385343 0.61781233 5 1 C4.67 2.65 4.34 4.3 4 6 C0.25 7.125 0.25 7.125 -2 6 C-1.125 1.125 -1.125 1.125 0 0 Z " fill="#6E6E6E" transform="translate(78,83)"/>
<path d="M0 0 C1.67542976 0.28604898 3.34385343 0.61781233 5 1 C4.67 2.65 4.34 4.3 4 6 C2.125 6.625 2.125 6.625 0 7 C-0.66 6.34 -1.32 5.68 -2 5 C-1.46428571 1.46428571 -1.46428571 1.46428571 0 0 Z " fill="#6A6A6A" transform="translate(122,83)"/>
<path d="M0 0 C7.75 0.75 7.75 0.75 10 3 C5.8204355 5.78637633 3.85331323 4.79562512 -1 4 C-0.67 2.68 -0.34 1.36 0 0 Z " fill="#282828" transform="translate(106,113)"/>
<path d="M0 0 C0.66 0.33 1.32 0.66 2 1 C1.835 1.928125 1.67 2.85625 1.5 3.8125 C0.92251612 6.95621353 0.92251612 6.95621353 1 10 C0.01 10 -0.98 10 -2 10 C-2.33 9.67 -2.66 9.34 -3 9 C-2.4 2.4 -2.4 2.4 0 0 Z " fill="#E0E0E0" transform="translate(120,81)"/>
<path d="M0 0 C0 0.99 0 1.98 0 3 C-0.7425 3.28875 -1.485 3.5775 -2.25 3.875 C-4.56739797 4.82302644 -6.77917115 5.84845911 -9 7 C-9 4 -9 4 -7.3125 1.8125 C-4.6038423 -0.31050198 -3.35291118 -0.37254569 0 0 Z " fill="#1B1B1B" transform="translate(157,103)"/>
<path d="M0 0 C1.65 0 3.3 0 5 0 C5.042721 1.66611905 5.04063832 3.33382885 5 5 C4 6 4 6 1.4375 6.0625 C0.2309375 6.0315625 0.2309375 6.0315625 -1 6 C-0.67 4.02 -0.34 2.04 0 0 Z " fill="#D3D3D3" transform="translate(120,65)"/>
<path d="M0 0 C1.8125 0.0625 1.8125 0.0625 4 1 C5.75 4.5625 5.75 4.5625 7 8 C5.68 8 4.36 8 3 8 C0 2.25 0 2.25 0 0 Z " fill="#181818" transform="translate(160,114)"/>
<path d="M0 0 C2.5 1.25 2.5 1.25 5 3 C5 4.32 5 5.64 5 7 C2.04590299 5.62845496 -0.44008376 4.01136276 -3 2 C-2.01 1.34 -1.02 0.68 0 0 Z " fill="#1A1A1A" transform="translate(34,104)"/>
<path d="M0 0 C0.33 0.99 0.66 1.98 1 3 C-0.125 4.5 -0.125 4.5 -2 6 C-5.1875 6.1875 -5.1875 6.1875 -8 6 C-6.49650603 2.99301207 -3.9581052 2.41742541 -1 1 C-0.67 0.67 -0.34 0.34 0 0 Z " fill="#F6F6F6" transform="translate(128,86)"/>
<path d="M0 0 C1.98 0.495 1.98 0.495 4 1 C3.67 2.32 3.34 3.64 3 5 C1.68 4.67 0.36 4.34 -1 4 C-0.67 2.68 -0.34 1.36 0 0 Z " fill="#282828" transform="translate(131,104)"/>
<path d="M0 0 C0.99 0 1.98 0 3 0 C3.125 2.875 3.125 2.875 3 6 C2.34 6.66 1.68 7.32 1 8 C1 7.34 1 6.68 1 6 C0.34 5.67 -0.32 5.34 -1 5 C-0.67 3.35 -0.34 1.7 0 0 Z " fill="#070707" transform="translate(37,126)"/>
<path d="M0 0 C0.66 0 1.32 0 2 0 C1.67 1.98 1.34 3.96 1 6 C0.01 6 -0.98 6 -2 6 C-2.33 5.34 -2.66 4.68 -3 4 C-1.625 2 -1.625 2 0 0 Z " fill="#191919" transform="translate(171,136)"/>
<path d="M0 0 C0.99 0.33 1.98 0.66 3 1 C2.67 2.32 2.34 3.64 2 5 C1.01 5 0.02 5 -1 5 C-0.67 3.35 -0.34 1.7 0 0 Z " fill="#131313" transform="translate(83,104)"/>
</svg>
